<?xml version="1.0" encoding="UTF-8" standalone="no"?>
<!-- Created with Inkscape (http://www.inkscape.org/) -->

<svg
   xmlns:dc="http://purl.org/dc/elements/1.1/"
   xmlns:cc="http://creativecommons.org/ns#"
   xmlns:rdf="http://www.w3.org/1999/02/22-rdf-syntax-ns#"
   xmlns:svg="http://www.w3.org/2000/svg"
   xmlns="http://www.w3.org/2000/svg"
   xmlns:sodipodi="http://sodipodi.sourceforge.net/DTD/sodipodi-0.dtd"
   xmlns:inkscape="http://www.inkscape.org/namespaces/inkscape"
   width="210mm"
   height="297mm"
   viewBox="0 0 210 297"
   version="1.1"
   id="svg8"
   inkscape:version="0.92.1 r15371"
   sodipodi:docname="gamb2.svg">
  <defs
     id="defs2" />
  <sodipodi:namedview
     id="base"
     pagecolor="#ffffff"
     bordercolor="#666666"
     borderopacity="1.0"
     inkscape:pageopacity="0.0"
     inkscape:pageshadow="2"
     inkscape:zoom="11.313709"
     inkscape:cx="656.39881"
     inkscape:cy="866.57556"
     inkscape:document-units="mm"
     inkscape:current-layer="layer1"
     showgrid="false"
     inkscape:window-width="1366"
     inkscape:window-height="705"
     inkscape:window-x="-8"
     inkscape:window-y="-8"
     inkscape:window-maximized="1" />
  <metadata
     id="metadata5">
    <rdf:RDF>
      <cc:Work
         rdf:about="">
        <dc:format>image/svg+xml</dc:format>
        <dc:type
           rdf:resource="http://purl.org/dc/dcmitype/StillImage" />
        <dc:title></dc:title>
      </cc:Work>
    </rdf:RDF>
  </metadata>
  <g
     inkscape:label="Layer 1"
     inkscape:groupmode="layer"
     id="layer1">
    <path
       id="path10"
       d="m 167.36313,63.94933 h 6.35 c 0.2921,0 0.52917,-0.237066 0.52917,-0.529166 0,-0.2921 -0.23707,-0.529167 -0.52917,-0.529167 h -6.35 c -0.2921,0 -0.52916,0.237067 -0.52916,0.529167 0,0.2921 0.23706,0.529166 0.52916,0.529166 z m 6.35,1.058334 h -6.35 c -0.2921,0 -0.52916,0.237066 -0.52916,0.529166 0,0.2921 0.23706,0.529167 0.52916,0.529167 h 6.35 c 0.2921,0 0.52917,-0.237067 0.52917,-0.529167 0,-0.2921 -0.23707,-0.529166 -0.52917,-0.529166 z m 0,2.116666 h -6.35 c -0.2921,0 -0.52916,0.237067 -0.52916,0.529167 0,0.2921 0.23706,0.529167 0.52916,0.529167 h 6.35 c 0.2921,0 0.52917,-0.237067 0.52917,-0.529167 0,-0.2921 -0.23707,-0.529167 -0.52917,-0.529167 z"
       inkscape:connector-curvature="0"
       style="stroke-width:0.26458332" />
    <path
       style="fill:#ffffff;stroke-width:0.08928572"
       d="m 631.91543,241.54864 c -0.17187,-0.0545 -0.49747,-0.28365 -0.72355,-0.50929 -0.52516,-0.52412 -0.69163,-1.0956 -0.5234,-1.79683 0.14036,-0.5851 0.76146,-1.26144 1.29159,-1.40647 0.50716,-0.13874 24.67724,-0.13762 25.17858,0.001 0.70991,0.19653 1.38177,1.10509 1.38343,1.87084 0.002,0.74651 -0.68694,1.66431 -1.39641,1.8613 -0.49239,0.13672 -24.77649,0.11677 -25.21024,-0.0207 z"
       id="path4503"
       inkscape:connector-curvature="0"
       transform="scale(0.26458333)" />
    <path
       style="fill:#ffffff;stroke-width:0.08928572"
       d="m 631.64101,249.40728 c -0.48135,-0.25198 -0.94266,-0.89834 -1.02286,-1.43319 -0.11764,-0.78448 0.34499,-1.66951 1.05149,-2.01152 l 0.39525,-0.19134 12.58805,0.0232 12.58806,0.0232 0.368,0.24354 c 0.47722,0.31582 0.82362,0.91111 0.88197,1.51564 0.0608,0.63001 -0.28463,1.33278 -0.84661,1.72241 l -0.38714,0.26841 -12.61049,0.0232 -12.61049,0.0232 z"
       id="path4505"
       inkscape:connector-curvature="0"
       transform="scale(0.26458333)" />
    <path
       style="fill:#ffffff;stroke-width:0.08928572"
       d="m 631.82615,257.5061 c -0.77442,-0.33451 -1.3334,-1.26497 -1.21284,-2.01887 0.10995,-0.68761 0.47533,-1.20606 1.07891,-1.53089 l 0.35714,-0.1922 12.23214,-0.0275 c 9.05694,-0.0203 12.35739,-4.9e-4 12.71462,0.0764 0.38438,0.0828 0.56684,0.18826 0.89741,0.51883 1.01176,1.01176 0.73037,2.54895 -0.57631,3.14836 -0.34104,0.15645 -0.9168,0.16377 -12.76786,0.1623 -10.87521,-0.001 -12.44938,-0.0182 -12.72321,-0.13651 z"
       id="path4507"
       inkscape:connector-curvature="0"
       transform="scale(0.26458333)" />
    <path
       style="fill:#ffffff;stroke-width:0.01578363"
       d="m 635.04613,257.61678 c -1.56485,-0.0109 -2.08267,-0.0204 -2.61219,-0.0477 -0.53184,-0.0275 -0.61596,-0.0493 -0.88984,-0.23053 -0.54681,-0.36189 -0.94106,-1.05112 -0.94106,-1.64518 0,-0.22905 0.0922,-0.58039 0.22197,-0.84606 0.19783,-0.40496 0.51108,-0.6984 1.04072,-0.97491 l 0.19729,-0.103 9.56489,-0.0196 c 5.26068,-0.0108 10.40832,-0.0142 11.43918,-0.008 l 1.87431,0.012 v 1.92965 1.92966 l -1.17193,0.0108 c -1.45048,0.0133 -16.6048,0.007 -18.72334,-0.007 z"
       id="path4509"
       inkscape:connector-curvature="0"
       transform="scale(0.26458333)" />
  </g>
</svg>
